<svg width="27" height="27" xmlns="http://www.w3.org/2000/svg" xmlns:xlink="http://www.w3.org/1999/xlink" xmlns:svgjs="http://svgjs.com/svgjs" viewBox="1273 430 27 27"><svg width="3" height="4" xmlns="http://www.w3.org/2000/svg" xmlns:xlink="http://www.w3.org/1999/xlink" xmlns:svgjs="http://svgjs.com/svgjs" viewBox="1278 430 3 4" x="1278" y="430"><svg width="3" height="4" xmlns="http://www.w3.org/2000/svg" xmlns:xlink="http://www.w3.org/1999/xlink" xmlns:svgjs="http://svgjs.com/svgjs" viewBox="1278 430 3 4" x="1278" y="430"><svg width="3" height="4" xmlns="http://www.w3.org/2000/svg" xmlns:xlink="http://www.w3.org/1999/xlink" xmlns:svgjs="http://svgjs.com/svgjs" viewBox="0.167 0 2.667 4" fill="#54e1bc" x="1278" y="430"><svg xmlns="http://www.w3.org/2000/svg" xmlns:xlink="http://www.w3.org/1999/xlink" width="3" height="4" viewBox="0.802 0.63 1.847 2.771"><path paint-order="stroke fill markers" fill-rule="evenodd" d="M1.725.63a.924.924 0 0 0-.923.924V3.4h1.847V1.554A.924.924 0 0 0 1.725.63z"/></svg></svg></svg></svg><svg width="3" height="4" xmlns="http://www.w3.org/2000/svg" xmlns:xlink="http://www.w3.org/1999/xlink" xmlns:svgjs="http://svgjs.com/svgjs" viewBox="1291 430 3 4" x="1291" y="430"><svg width="3" height="4" xmlns="http://www.w3.org/2000/svg" xmlns:xlink="http://www.w3.org/1999/xlink" xmlns:svgjs="http://svgjs.com/svgjs" viewBox="1291 430 3 4" x="1291" y="430"><svg width="3" height="4" xmlns="http://www.w3.org/2000/svg" xmlns:xlink="http://www.w3.org/1999/xlink" xmlns:svgjs="http://svgjs.com/svgjs" viewBox="0.167 0 2.666 4" fill="#54e1bc" x="1291" y="430"><svg xmlns="http://www.w3.org/2000/svg" xmlns:xlink="http://www.w3.org/1999/xlink" width="3" height="4" viewBox="0.731 0.63 1.847 2.771"><path paint-order="stroke fill markers" fill-rule="evenodd" d="M1.655.63a.923.923 0 0 0-.924.924V3.4h1.847V1.554A.923.923 0 0 0 1.655.63z"/></svg></svg></svg></svg><svg width="27" height="24" xmlns="http://www.w3.org/2000/svg" xmlns:xlink="http://www.w3.org/1999/xlink" xmlns:svgjs="http://svgjs.com/svgjs" viewBox="1273 433 27 24" x="1273" y="433"><svg width="27" height="24" xmlns="http://www.w3.org/2000/svg" xmlns:xlink="http://www.w3.org/1999/xlink" xmlns:svgjs="http://svgjs.com/svgjs" viewBox="1273 433 27 24" x="1273" y="433"><svg width="27" height="24" xmlns="http://www.w3.org/2000/svg" xmlns:xlink="http://www.w3.org/1999/xlink" xmlns:svgjs="http://svgjs.com/svgjs" viewBox="0.06 0 26.88 24" fill="#54e1bc" x="1273" y="433"><svg xmlns="http://www.w3.org/2000/svg" xmlns:xlink="http://www.w3.org/1999/xlink" width="27" height="24" viewBox="0.26 0.401 25.859 23.088"><path paint-order="stroke fill markers" fill-rule="evenodd" d="M23.349.4h-2.771v3.695a.923.923 0 1 1-1.847 0V.401H7.65v3.694a.924.924 0 0 1-1.847 0V.401h-2.77A2.77 2.77 0 0 0 .26 3.17V20.72a2.77 2.77 0 0 0 2.771 2.77H23.35a2.77 2.77 0 0 0 2.77-2.77V3.17a2.77 2.77 0 0 0-2.77-2.77zm.923 20.319c0 .51-.413.923-.923.923H3.03a.924.924 0 0 1-.923-.923V8.713h22.164v12.006z"/></svg></svg></svg></svg><svg width="5" height="3" xmlns="http://www.w3.org/2000/svg" xmlns:xlink="http://www.w3.org/1999/xlink" xmlns:svgjs="http://svgjs.com/svgjs" viewBox="1277 443 5 3" x="1277" y="443"><svg width="5" height="3" xmlns="http://www.w3.org/2000/svg" xmlns:xlink="http://www.w3.org/1999/xlink" xmlns:svgjs="http://svgjs.com/svgjs" viewBox="1277 443 5 3" x="1277" y="443"><svg width="5" height="3" xmlns="http://www.w3.org/2000/svg" xmlns:xlink="http://www.w3.org/1999/xlink" xmlns:svgjs="http://svgjs.com/svgjs" viewBox="0 0.25 5 2.5" fill="#54e1bc" x="1277" y="443"><svg xmlns="http://www.w3.org/2000/svg" xmlns:xlink="http://www.w3.org/1999/xlink" width="5" height="3" viewBox="0.878 0.56 3.695 1.847"><path paint-order="stroke fill markers" fill-rule="evenodd" d="M3.649.56H1.802a.924.924 0 0 0 0 1.847h1.847a.924.924 0 1 0 0-1.847z"/></svg></svg></svg></svg><svg width="5" height="3" xmlns="http://www.w3.org/2000/svg" xmlns:xlink="http://www.w3.org/1999/xlink" xmlns:svgjs="http://svgjs.com/svgjs" viewBox="1284 443 5 3" x="1284" y="443"><svg width="5" height="3" xmlns="http://www.w3.org/2000/svg" xmlns:xlink="http://www.w3.org/1999/xlink" xmlns:svgjs="http://svgjs.com/svgjs" viewBox="1284 443 5 3" x="1284" y="443"><svg width="5" height="3" xmlns="http://www.w3.org/2000/svg" xmlns:xlink="http://www.w3.org/1999/xlink" xmlns:svgjs="http://svgjs.com/svgjs" viewBox="0 0.25 5 2.5" fill="#54e1bc" x="1284" y="443"><svg xmlns="http://www.w3.org/2000/svg" xmlns:xlink="http://www.w3.org/1999/xlink" width="5" height="3" viewBox="0.343 0.56 3.695 1.847"><path paint-order="stroke fill markers" fill-rule="evenodd" d="M3.114.56H1.266a.924.924 0 0 0 0 1.847h1.848a.924.924 0 1 0 0-1.847z"/></svg></svg></svg></svg><svg width="5" height="3" xmlns="http://www.w3.org/2000/svg" xmlns:xlink="http://www.w3.org/1999/xlink" xmlns:svgjs="http://svgjs.com/svgjs" viewBox="1290 443 5 3" x="1290" y="443"><svg width="5" height="3" xmlns="http://www.w3.org/2000/svg" xmlns:xlink="http://www.w3.org/1999/xlink" xmlns:svgjs="http://svgjs.com/svgjs" viewBox="1290 443 5 3" x="1290" y="443"><svg width="5" height="3" xmlns="http://www.w3.org/2000/svg" xmlns:xlink="http://www.w3.org/1999/xlink" xmlns:svgjs="http://svgjs.com/svgjs" viewBox="0 0.25 5 2.5" fill="#54e1bc" x="1290" y="443"><svg xmlns="http://www.w3.org/2000/svg" xmlns:xlink="http://www.w3.org/1999/xlink" width="5" height="3" viewBox="0.808 0.56 3.694 1.847"><path paint-order="stroke fill markers" fill-rule="evenodd" d="M3.578.56H1.731a.924.924 0 0 0 0 1.847h1.847a.923.923 0 0 0 0-1.847z"/></svg></svg></svg></svg><svg width="5" height="3" xmlns="http://www.w3.org/2000/svg" xmlns:xlink="http://www.w3.org/1999/xlink" xmlns:svgjs="http://svgjs.com/svgjs" viewBox="1277 447 5 3" x="1277" y="447"><svg width="5" height="3" xmlns="http://www.w3.org/2000/svg" xmlns:xlink="http://www.w3.org/1999/xlink" xmlns:svgjs="http://svgjs.com/svgjs" viewBox="1277 447 5 3" x="1277" y="447"><svg width="5" height="3" xmlns="http://www.w3.org/2000/svg" xmlns:xlink="http://www.w3.org/1999/xlink" xmlns:svgjs="http://svgjs.com/svgjs" viewBox="0 0.25 5 2.5" fill="#54e1bc" x="1277" y="447"><svg xmlns="http://www.w3.org/2000/svg" xmlns:xlink="http://www.w3.org/1999/xlink" width="5" height="3" viewBox="0.878 0.254 3.695 1.847"><path paint-order="stroke fill markers" fill-rule="evenodd" d="M3.649.254H1.802a.924.924 0 0 0 0 1.847h1.847a.924.924 0 0 0 0-1.847z"/></svg></svg></svg></svg><svg width="5" height="3" xmlns="http://www.w3.org/2000/svg" xmlns:xlink="http://www.w3.org/1999/xlink" xmlns:svgjs="http://svgjs.com/svgjs" viewBox="1284 447 5 3" x="1284" y="447"><svg width="5" height="3" xmlns="http://www.w3.org/2000/svg" xmlns:xlink="http://www.w3.org/1999/xlink" xmlns:svgjs="http://svgjs.com/svgjs" viewBox="1284 447 5 3" x="1284" y="447"><svg width="5" height="3" xmlns="http://www.w3.org/2000/svg" xmlns:xlink="http://www.w3.org/1999/xlink" xmlns:svgjs="http://svgjs.com/svgjs" viewBox="0 0.25 5 2.5" fill="#54e1bc" x="1284" y="447"><svg xmlns="http://www.w3.org/2000/svg" xmlns:xlink="http://www.w3.org/1999/xlink" width="5" height="3" viewBox="0.343 0.254 3.695 1.847"><path paint-order="stroke fill markers" fill-rule="evenodd" d="M3.114.254H1.266a.924.924 0 0 0 0 1.847h1.848a.924.924 0 0 0 0-1.847z"/></svg></svg></svg></svg><svg width="5" height="3" xmlns="http://www.w3.org/2000/svg" xmlns:xlink="http://www.w3.org/1999/xlink" xmlns:svgjs="http://svgjs.com/svgjs" viewBox="1290 447 5 3" x="1290" y="447"><svg width="5" height="3" xmlns="http://www.w3.org/2000/svg" xmlns:xlink="http://www.w3.org/1999/xlink" xmlns:svgjs="http://svgjs.com/svgjs" viewBox="1290 447 5 3" x="1290" y="447"><svg width="5" height="3" xmlns="http://www.w3.org/2000/svg" xmlns:xlink="http://www.w3.org/1999/xlink" xmlns:svgjs="http://svgjs.com/svgjs" viewBox="0 0.25 5 2.5" fill="#54e1bc" x="1290" y="447"><svg xmlns="http://www.w3.org/2000/svg" xmlns:xlink="http://www.w3.org/1999/xlink" width="5" height="3" viewBox="0.808 0.254 3.694 1.847"><path paint-order="stroke fill markers" fill-rule="evenodd" d="M3.578.254H1.731a.924.924 0 0 0 0 1.847h1.847a.923.923 0 0 0 0-1.847z"/></svg></svg></svg></svg><svg width="5" height="3" xmlns="http://www.w3.org/2000/svg" xmlns:xlink="http://www.w3.org/1999/xlink" xmlns:svgjs="http://svgjs.com/svgjs" viewBox="1277 450 5 3" x="1277" y="450"><svg width="5" height="3" xmlns="http://www.w3.org/2000/svg" xmlns:xlink="http://www.w3.org/1999/xlink" xmlns:svgjs="http://svgjs.com/svgjs" viewBox="1277 450 5 3" x="1277" y="450"><svg width="5" height="3" xmlns="http://www.w3.org/2000/svg" xmlns:xlink="http://www.w3.org/1999/xlink" xmlns:svgjs="http://svgjs.com/svgjs" viewBox="0 0.25 5 2.5" fill="#54e1bc" x="1277" y="450"><svg xmlns="http://www.w3.org/2000/svg" xmlns:xlink="http://www.w3.org/1999/xlink" width="5" height="3" viewBox="0.878 0.948 3.695 1.847"><path paint-order="stroke fill markers" fill-rule="evenodd" d="M3.649.948H1.802a.924.924 0 0 0 0 1.847h1.847a.924.924 0 0 0 0-1.847z"/></svg></svg></svg></svg><svg width="5" height="3" xmlns="http://www.w3.org/2000/svg" xmlns:xlink="http://www.w3.org/1999/xlink" xmlns:svgjs="http://svgjs.com/svgjs" viewBox="1284 450 5 3" x="1284" y="450"><svg width="5" height="3" xmlns="http://www.w3.org/2000/svg" xmlns:xlink="http://www.w3.org/1999/xlink" xmlns:svgjs="http://svgjs.com/svgjs" viewBox="1284 450 5 3" x="1284" y="450"><svg width="5" height="3" xmlns="http://www.w3.org/2000/svg" xmlns:xlink="http://www.w3.org/1999/xlink" xmlns:svgjs="http://svgjs.com/svgjs" viewBox="0 0.25 5 2.5" fill="#54e1bc" x="1284" y="450"><svg xmlns="http://www.w3.org/2000/svg" xmlns:xlink="http://www.w3.org/1999/xlink" width="5" height="3" viewBox="0.343 0.948 3.695 1.847"><path paint-order="stroke fill markers" fill-rule="evenodd" d="M3.114.948H1.266a.924.924 0 0 0 0 1.847h1.848a.924.924 0 0 0 0-1.847z"/></svg></svg></svg></svg><svg width="5" height="3" xmlns="http://www.w3.org/2000/svg" xmlns:xlink="http://www.w3.org/1999/xlink" xmlns:svgjs="http://svgjs.com/svgjs" viewBox="1290 450 5 3" x="1290" y="450"><svg width="5" height="3" xmlns="http://www.w3.org/2000/svg" xmlns:xlink="http://www.w3.org/1999/xlink" xmlns:svgjs="http://svgjs.com/svgjs" viewBox="1290 450 5 3" x="1290" y="450"><svg width="5" height="3" xmlns="http://www.w3.org/2000/svg" xmlns:xlink="http://www.w3.org/1999/xlink" xmlns:svgjs="http://svgjs.com/svgjs" viewBox="0 0.25 5 2.5" fill="#54e1bc" x="1290" y="450"><svg xmlns="http://www.w3.org/2000/svg" width="5" height="3" viewBox="0.808 0.948 3.694 1.847"><path paint-order="stroke fill markers" fill-rule="evenodd" d="M3.578.948H1.731a.924.924 0 0 0 0 1.847h1.847a.923.923 0 0 0 0-1.847z"/></svg></svg></svg></svg></svg>