<svg width="12" height="22" xmlns="http://www.w3.org/2000/svg" xmlns:xlink="http://www.w3.org/1999/xlink" xmlns:svgjs="http://svgjs.com/svgjs" viewBox="0.5 0 11 22" fill="#fff" stroke-miterlimit="100" stroke="#fff"><svg xmlns="http://www.w3.org/2000/svg" width="12" height="22" viewBox="0.963 0 10.697 21.393"><path paint-order="stroke fill markers" fill-rule="evenodd" d="M1.189 10.11l9.16-9.868a.728.728 0 0 1 1.086.002c.3.324.299.849-.001 1.172l-8.616 9.28 8.616 9.281c.3.323.301.848.002 1.172a.74.74 0 0 1-.544.244.737.737 0 0 1-.543-.242l-9.16-9.867a.863.863 0 0 1-.226-.587c0-.22.081-.432.226-.588z"/></svg></svg>